<svg width="57" height="70" viewBox="0 0 57 70" fill="none" xmlns="http://www.w3.org/2000/svg">
<g clip-path="url(#clip0_41_1074)">
<path d="M12.3947 43.4145C16.2016 31.6697 20.6415 20.1323 25.6275 8.82657C26.8083 6.14938 28.0571 3.4924 29.3399 0.860676C29.765 -0.0113508 29.6182 0.223111 29.5345 1.70464C29.3373 5.19728 28.9329 10.5311 28.6962 13.5647C27.8397 24.5427 26.8805 35.5138 25.7173 46.4647C24.9372 53.8094 24.432 61.5314 22.6037 68.7337C22.5329 69.0127 22.5373 69.41 22.2744 69.5331C21.4661 69.9119 21.879 67.8048 21.7654 66.9272C21.0985 61.7691 20.1315 56.7963 17.559 52.18C16.0345 49.4441 13.7274 46.0512 10.5685 44.8951C8.53431 44.1508 6.74411 45.3882 5.28434 46.5979C3.82242 47.8094 2.49442 49.2141 1.43724 50.7882C1.02603 51.4004 -0.143915 52.8503 0.598961 52.8314C1.78262 52.8015 5.08459 50.9414 5.73341 50.6549C11.9139 47.9262 18.0391 44.9837 24.5048 42.9555C30.6899 41.0153 37.1773 39.8425 43.6505 40.4829" stroke="white" stroke-width="1.6" stroke-linecap="round" stroke-linejoin="round"/>
<path d="M33.2641 39.7226C32.7803 38.3155 32.1616 36.3491 30.2124 36.9072C29.6806 37.0595 26.7757 39.6327 28.4223 39.8097C29.4499 39.9203 33.7452 35.7614 33.7923 36.7621C33.8447 37.876 34.7246 39.9922 35.4356 38.0102C35.6212 37.4925 35.9897 38.2894 36.2865 38.3585C36.9754 38.5189 37.1985 37.8871 37.4897 37.4297C38.1641 36.3701 38.0178 36.1571 38.0178 37.9231C38.0178 39.6496 38.0868 41.3407 38.2232 43.0606C38.3084 44.1355 38.6132 45.9028 38.1646 46.921C37.3607 48.7451 36.26 44.4499 36.2279 44.1635C35.8814 41.079 37.8348 38.9261 39.9546 36.8782C40.6177 36.2375 40.3312 37.343 40.3947 37.72C40.4673 38.1501 40.9143 37.0127 41.1284 36.6316C41.6303 35.7378 42.1985 34.9194 42.801 34.0918C43.553 33.0586 43.5505 33.3321 43.564 34.5562C43.5763 35.6876 43.7221 37.0454 43.2998 38.1263C43.1715 38.4547 42.6542 38.4689 42.8303 38.1553C43.2411 37.4241 44.4184 36.8139 45.0017 36.2106C46.5526 34.607 47.7825 32.63 47.9949 30.3766C48.0841 29.4296 47.8824 26.678 47.5254 27.5611C47.0679 28.6926 47.5014 30.9982 47.5254 32.2052C47.5471 33.3014 47.6328 34.3678 47.9362 35.4269C48.053 35.8349 48.2974 36.9195 48.5231 36.559C48.9775 35.8329 49.0112 34.8178 49.5207 34.0338C49.7783 33.6375 49.9015 34.7569 50.1371 35.0787C52.0969 37.7576 54.2828 37.1415 56.5046 35.543" stroke="white" stroke-width="1.6" stroke-linecap="round" stroke-linejoin="round"/>
</g>
<defs>
<clipPath id="clip0_41_1074">
<rect width="56.9492" height="70" fill="white"/>
</clipPath>
</defs>
</svg>
